<?xml version="1.0" encoding="iso-8859-1"?>
<!-- Generator: Adobe Illustrator 19.0.0, SVG Export Plug-In . SVG Version: 6.00 Build 0)  -->
<svg version="1.1" id="Layer_1" xmlns="http://www.w3.org/2000/svg" xmlns:xlink="http://www.w3.org/1999/xlink" x="0px" y="0px"
	 viewBox="0 0 512.009 512.009" style="enable-background:new 0 0 512.009 512.009;" xml:space="preserve">
<circle style="fill:#F7B239;" cx="256.004" cy="256.004" r="256.004"/>
<path style="fill:#E09B2D;" d="M121.499,390.501C29.407,298.407,22.15,153.608,99.723,53.204
	c-8.593,6.638-16.861,13.895-24.743,21.777c-99.974,99.974-99.974,262.065,0,362.038s262.065,99.974,362.038,0
	c7.881-7.881,15.138-16.15,21.777-24.743C358.392,489.85,213.593,482.593,121.499,390.501z"/>
<path style="fill:#4D4D4D;" d="M304.789,362.943c0,12.93-2.72,25-7.414,35.209c-8.616,18.75-23.924,31.211-41.371,31.211
	s-32.755-12.462-41.371-31.211c-4.706-10.21-7.426-22.279-7.426-35.209c0-36.677,21.849-66.421,48.797-66.421
	S304.789,326.266,304.789,362.943z"/>
<path style="fill:#F2F2F2;" d="M214.621,327.734c8.616-18.75,23.924-31.211,41.371-31.211s32.755,12.462,41.371,31.211
	c-1.519,0.309-23.6,8.918-41.371,8.947C234.413,336.718,216.466,328.108,214.621,327.734z"/>
<g>
	<path style="fill:#2197D8;" d="M428.977,431.138c0,5.946-0.696,10.944-1.872,15.283c-26.657,23.962-58.362,42.408-93.331,53.541
		c2.391-31.907,26.733-33.641,26.733-68.824c0-37.006-26.923-37.006-26.923-74.012s26.923-37.006,26.923-74.012
		c0-36.563-26.303-36.993-26.91-72.721c24.734,1.594,50.328,7.996,70.406,14.284c6.161,22.444,24.974,27.517,24.974,58.438
		c0,37.006-26.923,37.006-26.923,74.012S428.977,394.132,428.977,431.138z"/>
	<path style="fill:#2197D8;" d="M151.49,283.114c0,37.006,26.923,37.006,26.923,74.012s-26.923,37.006-26.923,74.012
		c0,35.184,24.342,36.917,26.733,68.824c-34.969-11.133-66.674-29.579-93.331-53.541c-1.177-4.34-1.872-9.337-1.872-15.283
		c0-37.006,26.923-37.006,26.923-74.012S83.02,320.12,83.02,283.114c0-30.92,18.813-35.994,24.974-58.438
		c20.078-6.288,45.672-12.69,70.406-14.284C177.792,246.121,151.49,246.551,151.49,283.114z"/>
</g>
<g>
	<path style="fill:#4D4D4D;" d="M70.221,247.971c-3.646,0-7.123-2.113-8.687-5.664c-2.114-4.795,0.059-10.396,4.854-12.51
		c0.653-0.288,16.245-7.128,38.772-14.176c18.093-5.667,35.14-9.763,50.929-12.248c-14.317-5.477-33.393-10.439-55.509-10.439
		c-5.242,0-9.489-4.248-9.489-9.489s4.247-9.489,9.489-9.489c55.615,0,93.247,27.258,94.822,28.418
		c3.3,2.432,4.666,6.708,3.386,10.601c-1.28,3.894-4.915,6.527-9.014,6.527c-3.541,0-7.157,0.12-10.746,0.358
		c-19.981,1.288-42.919,5.954-68.198,13.871c-21.524,6.734-36.634,13.364-36.784,13.431C72.8,247.711,71.5,247.971,70.221,247.971z"
		/>
	<path style="fill:#4D4D4D;" d="M441.775,247.971c-1.278,0-2.576-0.259-3.821-0.807l0,0c-0.151-0.067-15.341-6.722-36.784-13.431
		c-25.282-7.917-48.22-12.583-68.184-13.87c-3.606-0.239-7.216-0.359-10.75-0.359c-4.099,0-7.734-2.633-9.014-6.527
		c-1.28-3.894,0.085-8.17,3.386-10.601c1.575-1.16,39.207-28.418,94.808-28.418c5.242,0,9.489,4.248,9.489,9.489
		s-4.247,9.489-9.489,9.489c-22.111,0-41.182,4.962-55.499,10.44c15.782,2.484,32.828,6.581,50.921,12.248
		c22.526,7.048,38.117,13.888,38.77,14.176c4.795,2.114,6.968,7.715,4.854,12.51C448.897,245.858,445.42,247.971,441.775,247.971z"
		/>
	<path style="fill:#4D4D4D;" d="M94.139,154.726c-1.657,0-3.334-0.433-4.858-1.345c-4.499-2.688-5.966-8.513-3.279-13.012
		c12.03-20.135,33.218-32.156,56.671-32.156c0.003,0,0,0,0.001,0c23.455,0,44.64,12.022,56.67,32.156
		c2.687,4.499,1.22,10.325-3.279,13.012c-4.498,2.688-10.325,1.22-13.012-3.279c-8.571-14.347-23.666-22.912-40.379-22.913
		c-16.714,0-31.81,8.566-40.381,22.913C100.517,153.076,97.368,154.726,94.139,154.726z"/>
	<path style="fill:#4D4D4D;" d="M320.793,154.726c-1.657,0-3.334-0.433-4.858-1.345c-4.499-2.688-5.966-8.513-3.279-13.012
		c12.03-20.135,33.218-32.156,56.671-32.156c0.003,0,0,0,0.001,0c23.455,0,44.64,12.022,56.67,32.156
		c2.687,4.499,1.22,10.325-3.279,13.012c-4.498,2.688-10.325,1.22-13.012-3.279c-8.571-14.347-23.666-22.912-40.379-22.913
		c-16.714,0-31.81,8.566-40.381,22.913C327.171,153.076,324.021,154.726,320.793,154.726z"/>
</g>
<g>
</g>
<g>
</g>
<g>
</g>
<g>
</g>
<g>
</g>
<g>
</g>
<g>
</g>
<g>
</g>
<g>
</g>
<g>
</g>
<g>
</g>
<g>
</g>
<g>
</g>
<g>
</g>
<g>
</g>
</svg>
