<?xml version="1.0" encoding="iso-8859-1"?>
<!-- Generator: Adobe Illustrator 19.0.0, SVG Export Plug-In . SVG Version: 6.00 Build 0)  -->
<svg version="1.1" id="Layer_1" xmlns="http://www.w3.org/2000/svg" xmlns:xlink="http://www.w3.org/1999/xlink" x="0px" y="0px"
	 viewBox="0 0 512.009 512.009" style="enable-background:new 0 0 512.009 512.009;" xml:space="preserve">
<circle style="fill:#F7B239;" cx="256.004" cy="256.004" r="256.004"/>
<g>
	<path style="fill:#E09B2D;" d="M121.499,390.501C29.407,298.407,22.15,153.608,99.723,53.204
		c-8.593,6.638-16.861,13.895-24.743,21.777c-99.974,99.974-99.974,262.065,0,362.038s262.065,99.974,362.038,0
		c7.881-7.881,15.138-16.15,21.777-24.743C358.392,489.85,213.593,482.593,121.499,390.501z"/>
	<path style="fill:#E09B2D;" d="M256.001,406.199c-15.303,0-30.599-2.085-45.475-6.255c-5.045-1.414-7.989-6.652-6.575-11.699
		c1.414-5.045,6.652-7.992,11.698-6.575c26.399,7.401,54.307,7.401,80.706,0c5.049-1.412,10.283,1.53,11.698,6.575
		c1.414,5.045-1.53,10.283-6.575,11.698C286.602,404.114,271.299,406.199,256.001,406.199z"/>
</g>
<g>
	<path style="fill:#4D4D4D;" d="M384.701,297.195c-70.969,70.966-186.441,70.964-257.402,0c-3.707-3.706-9.714-3.706-13.42,0
		c-3.706,3.706-3.706,9.714,0,13.418c39.188,39.187,90.645,58.774,142.121,58.774c51.463,0,102.942-19.596,142.121-58.774
		c3.706-3.706,3.706-9.714,0-13.418C394.415,293.49,388.408,293.488,384.701,297.195z"/>
	<path style="fill:#4D4D4D;" d="M142.674,231.083c19.358,0,35.107-15.749,35.107-35.107s-15.749-35.107-35.107-35.107
		s-35.107,15.749-35.107,35.107S123.316,231.083,142.674,231.083z"/>
	<path style="fill:#4D4D4D;" d="M369.326,160.87c-19.358,0-35.107,15.749-35.107,35.107s15.749,35.107,35.107,35.107
		s35.107-15.749,35.107-35.107S388.684,160.87,369.326,160.87z"/>
</g>
<g>
</g>
<g>
</g>
<g>
</g>
<g>
</g>
<g>
</g>
<g>
</g>
<g>
</g>
<g>
</g>
<g>
</g>
<g>
</g>
<g>
</g>
<g>
</g>
<g>
</g>
<g>
</g>
<g>
</g>
</svg>
