<?xml version="1.0" encoding="iso-8859-1"?>
<!-- Generator: Adobe Illustrator 19.0.0, SVG Export Plug-In . SVG Version: 6.00 Build 0)  -->
<svg version="1.1" id="Layer_1" xmlns="http://www.w3.org/2000/svg" xmlns:xlink="http://www.w3.org/1999/xlink" x="0px" y="0px"
	 viewBox="0 0 512.009 512.009" style="enable-background:new 0 0 512.009 512.009;" xml:space="preserve">
<circle style="fill:#F7B239;" cx="256.004" cy="256.004" r="256.004"/>
<path style="fill:#E09B2D;" d="M121.499,390.501C29.407,298.407,22.15,153.608,99.723,53.204
	c-8.593,6.638-16.861,13.895-24.743,21.777c-99.974,99.974-99.974,262.065,0,362.038s262.065,99.974,362.038,0
	c7.881-7.881,15.138-16.15,21.777-24.743C358.392,489.85,213.593,482.593,121.499,390.501z"/>
<path style="fill:#FFFFFF;" d="M126.955,264.261h258.092c0,14.486-2.391,28.415-6.794,41.421H133.749
	C129.346,292.676,126.955,278.747,126.955,264.261z"/>
<path style="fill:#A81004;" d="M133.749,305.682h244.504c-8.679,25.632-25.189,47.633-46.684,63.182
	c-9.033-15.22-25.632-25.417-44.622-25.417c-11.602,0-22.305,3.808-30.946,10.248c-8.641-6.44-19.357-10.248-30.958-10.248
	c-18.977,0-35.589,10.197-44.609,25.417C158.938,353.315,142.428,331.314,133.749,305.682z"/>
<path style="fill:#F95428;" d="M332.606,370.686c-0.329-0.62-0.683-1.227-1.037-1.822c-9.033-15.22-25.632-25.417-44.622-25.417
	c-11.602,0-22.305,3.808-30.946,10.248c-8.641-6.44-19.357-10.248-30.958-10.248c-18.977,0-35.589,10.197-44.609,25.417
	c-0.354,0.595-0.708,1.202-1.037,1.822v6.414c0,42.308,34.297,76.605,76.605,76.605l0,0c42.308,0,76.605-34.297,76.605-76.605
	L332.606,370.686L332.606,370.686z"/>
<path style="fill:#E54728;" d="M331.568,368.863c-9.033-15.22-25.632-25.417-44.622-25.417c-11.602,0-22.305,3.808-30.946,10.248
	c-8.641-6.44-19.357-10.248-30.958-10.248c-18.977,0-35.589,10.197-44.609,25.417c-0.354,0.595-0.708,1.202-1.037,1.822v6.414
	c0,7.137,0.997,14.037,2.823,20.59c9.328-13.656,25.036-22.615,42.824-22.615c11.601,0,22.317,3.808,30.958,10.248
	c8.641-6.44,19.344-10.248,30.946-10.248c17.801,0,33.5,8.96,42.837,22.617c1.826-6.555,2.823-13.455,2.823-20.593v-6.414
	C332.277,370.066,331.923,369.457,331.568,368.863z"/>
<g>
	<path style="fill:#4D4D4D;" d="M205.155,212.645c0.858-3.756-0.64-7.659-3.793-9.876l-56.299-39.589
		c-4.286-3.014-10.205-1.982-13.22,2.304c-3.014,4.286-1.982,10.205,2.304,13.22l37.322,26.244l-78.323,12.931
		c-5.171,0.854-8.67,5.737-7.816,10.908c0.767,4.647,4.79,7.944,9.351,7.944c0.514,0,1.034-0.042,1.557-0.128l101.213-16.71
		C201.252,219.266,204.297,216.401,205.155,212.645z"/>
	<path style="fill:#4D4D4D;" d="M418.853,217.88l-78.323-12.931l37.322-26.244c4.286-3.015,5.319-8.933,2.304-13.22
		c-3.015-4.288-8.935-5.319-13.22-2.304l-56.299,39.589c-3.153,2.217-4.651,6.118-3.793,9.876c0.858,3.758,3.903,6.621,7.705,7.248
		l101.213,16.71c0.524,0.086,1.044,0.128,1.557,0.128c4.56,0,8.583-3.297,9.351-7.944
		C427.524,223.616,424.024,218.733,418.853,217.88z"/>
</g>
<g>
</g>
<g>
</g>
<g>
</g>
<g>
</g>
<g>
</g>
<g>
</g>
<g>
</g>
<g>
</g>
<g>
</g>
<g>
</g>
<g>
</g>
<g>
</g>
<g>
</g>
<g>
</g>
<g>
</g>
</svg>
