<?xml version="1.0" encoding="iso-8859-1"?>
<!-- Generator: Adobe Illustrator 19.0.0, SVG Export Plug-In . SVG Version: 6.00 Build 0)  -->
<svg version="1.1" id="Layer_1" xmlns="http://www.w3.org/2000/svg" xmlns:xlink="http://www.w3.org/1999/xlink" x="0px" y="0px"
	 viewBox="0 0 512.009 512.009" style="enable-background:new 0 0 512.009 512.009;" xml:space="preserve">
<circle style="fill:#2BA5F7;" cx="256.004" cy="256.004" r="256.004"/>
<path style="fill:#2197D8;" d="M121.499,390.501C29.407,298.407,22.15,153.608,99.723,53.204
	c-8.593,6.638-16.861,13.895-24.743,21.777c-99.974,99.974-99.974,262.065,0,362.038s262.065,99.974,362.038,0
	c7.881-7.881,15.138-16.15,21.777-24.743C358.392,489.85,213.593,482.593,121.499,390.501z"/>
<path style="fill:#A81004;" d="M354.847,387.821c0,18.104-8.464,24.316-22.545,25.569c-0.24-0.645-0.481-1.29-0.734-1.91
	c-9.033-22.849-25.632-38.144-44.622-38.144c-11.602,0-22.305,5.719-30.946,15.372c-8.641-9.653-19.357-15.372-30.958-15.372
	c-18.977,0-35.589,15.296-44.609,38.144c-0.253,0.62-0.493,1.265-0.734,1.91c-14.081-1.253-22.545-7.464-22.545-25.569
	c0-41.396,44.255-74.961,98.847-74.961S354.847,346.425,354.847,387.821z"/>
<path style="fill:#F95428;" d="M331.568,411.48c0.253,0.62,0.493,1.265,0.734,1.91c-18.13,1.619-45.584-4.959-76.302-4.959
	s-58.172,6.579-76.302,4.959c0.24-0.645,0.481-1.29,0.734-1.91c9.021-22.849,25.632-38.144,44.609-38.144
	c11.601,0,22.317,5.719,30.958,15.372c8.641-9.653,19.344-15.372,30.946-15.372C305.936,373.335,322.535,388.631,331.568,411.48z"/>
<g>
	<path style="fill:#4D4D4D;" d="M170.514,257.939c1.853,1.853,4.281,2.78,6.71,2.78c2.428,0,4.857-0.926,6.71-2.78
		c3.706-3.706,3.706-9.714,0-13.418l-28.537-28.537l28.537-28.538c3.706-3.706,3.706-9.714,0-13.418
		c-3.707-3.706-9.714-3.706-13.42,0l-28.537,28.537l-28.537-28.537c-3.706-3.706-9.713-3.706-13.42,0
		c-3.706,3.706-3.706,9.714,0,13.418l28.537,28.538l-28.537,28.537c-3.706,3.706-3.706,9.714,0,13.418
		c1.853,1.852,4.283,2.78,6.71,2.78s4.857-0.926,6.71-2.78l28.537-28.537L170.514,257.939z"/>
	<path style="fill:#4D4D4D;" d="M411.979,174.026c-3.707-3.706-9.714-3.706-13.419,0l-28.537,28.537l-28.537-28.537
		c-3.706-3.706-9.713-3.706-13.419,0c-3.706,3.706-3.706,9.714,0,13.418l28.537,28.538l-28.537,28.537
		c-3.706,3.706-3.706,9.714,0,13.418c1.853,1.852,4.283,2.78,6.71,2.78c2.428,0,4.857-0.926,6.71-2.78l28.537-28.537l28.537,28.537
		c1.853,1.853,4.281,2.78,6.71,2.78c2.428,0,4.857-0.926,6.71-2.78c3.706-3.706,3.706-9.714,0-13.418l-28.537-28.537l28.537-28.538
		C415.684,183.74,415.684,177.732,411.979,174.026z"/>
</g>
<g>
</g>
<g>
</g>
<g>
</g>
<g>
</g>
<g>
</g>
<g>
</g>
<g>
</g>
<g>
</g>
<g>
</g>
<g>
</g>
<g>
</g>
<g>
</g>
<g>
</g>
<g>
</g>
<g>
</g>
</svg>
